<svg xmlns="http://www.w3.org/2000/svg" xmlns:xlink="http://www.w3.org/1999/xlink" viewBox="0,0,256,256" width="64px" height="64px"><g fill="none" fill-rule="nonzero" stroke="none" stroke-width="1" stroke-linecap="butt" stroke-linejoin="miter" stroke-miterlimit="10" stroke-dasharray="" stroke-dashoffset="0" font-family="none" font-weight="none" font-size="none" text-anchor="none" style="mix-blend-mode: normal"><g transform="scale(2,2)"><path d="M64,123c32.5,0 59,-26.5 59,-59c0,-15.8 -6.1,-30.6 -17.3,-41.7c-11.1,-11.2 -25.9,-17.3 -41.7,-17.3c-32.5,0 -59,26.4 -59,59c0,10.4 2.7,20.5 7.9,29.5l-5.6,20.6c-1.2,4.4 2.8,8.5 7.3,7.3l21.3,-5.6c8.5,4.7 18.2,7.2 28.1,7.2z" fill="#ffffff"></path><path d="M107.9,20.2c-11.7,-11.7 -27.3,-18.2 -43.9,-18.2c-34.2,0 -62,27.8 -62,62c0,10.5 2.6,20.8 7.7,29.9l-5.3,19.4c-0.9,3.1 0,6.3 2.3,8.6c2.3,2.3 5.5,3.2 8.6,2.4l20.2,-5.3c8.8,4.6 18.6,7 28.6,7c34.2,0 62,-27.8 62,-62c-0.1,-16.5 -6.5,-32.1 -18.2,-43.8zM64,120c-9.3,0 -18.6,-2.4 -26.8,-6.8c-0.4,-0.2 -0.9,-0.4 -1.4,-0.4c-0.3,0 -0.5,0 -0.8,0.1l-21.3,5.6c-1.5,0.4 -2.5,-0.4 -2.9,-0.8c-0.4,-0.4 -1.2,-1.4 -0.8,-2.9l5.6,-20.6c0.2,-0.8 0.1,-1.6 -0.3,-2.3c-4.8,-8.4 -7.3,-18.1 -7.3,-27.9c0,-30.9 25.1,-56 56,-56c15,0 29.1,5.8 39.6,16.4c10.6,10.6 16.5,24.7 16.4,39.6c0,30.9 -25.1,56 -56,56z" fill="#37ccfd"></path><g fill="#37ccfd"><path d="M97.3,30.7c-8.9,-8.8 -20.7,-13.7 -33.3,-13.7c-25.9,0 -47,21 -47,47c0,8.3 2.2,16.4 6.3,23.5c1.6,2.8 2,6.1 1.2,9.2l-2.9,10.5l11.2,-2.9c1,-0.3 2,-0.4 3,-0.4c2,0 4,0.5 5.7,1.5c6.9,3.6 14.6,5.6 22.5,5.6v0c25.9,0 47,-21.1 47,-47c0,-12.6 -4.9,-24.4 -13.7,-33.3zM92.9,85.1c-1.2,3.4 -7.2,6.8 -10,7c-2.7,0.2 -5.2,1.2 -17.7,-3.7c-15,-5.9 -24.5,-21.3 -25.2,-22.3c-0.7,-1 -6,-8 -6,-15.3c0,-7.3 3.8,-10.8 5.2,-12.3c1.4,-1.5 2.9,-1.8 3.9,-1.8c1,0 2,0 2.8,0c1.1,0 2.2,0.1 3.3,2.5c1.3,2.9 4.2,10.2 4.5,10.9c0.4,0.7 0.6,1.6 0.1,2.6c-0.5,1 -0.7,1.6 -1.5,2.5c-0.7,0.9 -1.6,1.9 -2.2,2.6c-0.7,0.7 -1.5,1.5 -0.6,3c0.9,1.5 3.8,6.3 8.2,10.2c5.6,5 10.4,6.6 11.9,7.3c1.5,0.7 2.3,0.6 3.2,-0.4c0.9,-1 3.7,-4.3 4.7,-5.8c1,-1.5 2,-1.2 3.3,-0.7c1.4,0.5 8.6,4.1 10.1,4.8c1.5,0.7 2.5,1.1 2.8,1.7c0.4,0.8 0.4,3.7 -0.8,7.2z"></path></g></g></g></svg>